<svg width="63" height="122" viewBox="0 0 63 122" fill="none" xmlns="http://www.w3.org/2000/svg">
<path d="M12.3888 17.1359C15.206 17.1359 17.4899 14.8307 17.4899 11.9871C17.4899 9.14344 15.206 6.83822 12.3888 6.83822C9.57151 6.83822 7.28767 9.14344 7.28767 11.9871C7.28767 14.8307 9.57151 17.1359 12.3888 17.1359Z" fill="#10659E"/>
<path d="M0.592827 61.3242H6.90442C7.06986 61.3242 7.21048 61.4467 7.23254 61.6109L10.9053 87.9118C11.6305 93.3529 12.4274 104.925 12.5653 106.963C12.5763 107.138 12.7224 107.272 12.8961 107.272C13.0699 107.272 13.2132 107.138 13.227 106.963C13.3649 104.925 14.1618 93.3501 14.887 87.9118L18.5598 61.6109C18.5818 61.4467 18.7224 61.3242 18.8879 61.3242H25.1995C25.4007 61.3242 25.5579 61.5051 25.5276 61.7083L16.6985 121.713C16.6737 121.878 16.5359 121.997 16.3704 121.997H9.4274C9.26472 121.997 9.12409 121.875 9.09928 121.713L0.270221 61.7083C0.234376 61.5079 0.388783 61.3242 0.592827 61.3242Z" fill="white"/>
<path d="M32.9807 9.2874C31.3125 9.2874 29.8814 8.2799 29.2417 6.83822V120.606C29.2417 121.374 29.8594 121.997 30.6204 121.997H35.3438C36.1048 121.997 36.7224 121.374 36.7224 120.606V6.83822C36.08 8.2799 34.6461 9.2874 32.9807 9.2874Z" fill="white"/>
<path d="M32.9807 8.27713C35.2452 8.27713 37.0809 6.42423 37.0809 4.13856C37.0809 1.8529 35.2452 0 32.9807 0C30.7162 0 28.8805 1.8529 28.8805 4.13856C28.8805 6.42423 30.7162 8.27713 32.9807 8.27713Z" fill="#10659E"/>
<path d="M44.3327 4.13856H49.0561C49.8171 4.13856 50.4347 4.76199 50.4347 5.53015V50.6452C50.4347 51.4134 51.0524 52.0368 51.8134 52.0368H59.2224C59.9835 52.0368 60.6011 52.6603 60.6011 53.4284V55.7941C60.6011 56.5623 59.9835 57.1857 59.2224 57.1857H44.3327C43.5717 57.1857 42.954 56.5623 42.954 55.7941V5.53015C42.954 4.76199 43.5717 4.13856 44.3327 4.13856Z" fill="white"/>
<path d="M40.5496 90.9482C40.5496 79.7961 40.5496 70.2471 42.2289 65.7857C43.6434 61.8586 47.534 59.8965 51.7748 59.8965C56.0184 59.8965 59.9063 61.8586 61.3208 65.7857C63 70.2471 63 79.7933 63 90.9482C63 102.638 62.9118 111.469 61.3208 116.111C59.9063 120.127 56.1039 122 51.7748 122C47.443 122 43.6434 120.127 42.2289 116.111C40.6379 111.469 40.5496 102.635 40.5496 90.9482ZM51.7748 116.108C53.3658 116.108 55.045 115.304 55.4862 112.985C56.1039 109.328 56.1039 100.316 56.1039 90.9482C56.1039 81.9364 56.1921 72.5682 55.4862 68.8193C55.045 66.5009 53.2776 65.7857 51.7748 65.7857C50.1838 65.7857 48.5046 66.5009 48.0634 68.8193C47.3548 72.5655 47.4458 81.9364 47.4458 90.9482C47.4458 100.316 47.3575 109.328 48.0634 112.985C48.5046 115.307 50.1838 116.108 51.7748 116.108Z" fill="white"/>
<path d="M51.7776 95.7993C54.042 95.7993 55.8778 93.9464 55.8778 91.6608C55.8778 89.3751 54.042 87.5222 51.7776 87.5222C49.5131 87.5222 47.6774 89.3751 47.6774 91.6608C47.6774 93.9464 49.5131 95.7993 51.7776 95.7993Z" fill="#10659E"/>
<path d="M19.3897 32.1121L11.2389 25.8194C8.55328 23.6903 7.69023 21.948 7.69023 17.0107C7.69023 15.2684 7.78675 13.0419 8.26653 11.7839C8.84281 10.2365 10.3759 9.55738 12.3915 9.55738C14.4044 9.55738 15.9402 10.2337 16.42 11.7839C16.9329 13.5067 17.0652 18.5247 17.0873 22.4045C17.0928 23.1698 17.7077 23.7849 18.466 23.7849H23.1838C23.9504 23.7849 24.5708 23.1531 24.5625 22.3794C24.5101 17.5618 24.1682 11.3581 23.0349 9.07032C21.4053 5.77784 17.3768 4.13299 12.3888 4.13299C7.11396 4.13299 3.75825 5.5858 1.83913 9.07032C0.879575 10.8126 0.209528 14.0077 0.209528 17.0079C0.209528 24.0744 2.12865 27.6563 5.67737 30.3671L13.8281 36.6598C16.3208 38.5969 17.0901 40.047 17.0901 44.2106C17.0901 46.5345 16.9935 48.761 16.5138 50.1164C15.9375 51.7613 14.4044 52.5378 12.3888 52.5378C10.2794 52.5378 8.93657 51.5693 8.45679 50.2139C7.98252 48.6942 7.76744 46.2423 7.70954 42.1065C7.11395 43.7959 5.52296 45.0065 3.6452 45.0065C2.27479 45.0065 1.05604 44.3609 0.264678 43.3561C0.41909 48.505 0.909905 51.3021 1.83913 53.0221C3.66175 56.3146 7.49723 57.9594 12.3888 57.9594C17.4706 57.9594 21.0193 56.3146 22.7454 53.0221C23.9917 50.7955 24.568 46.5373 24.568 43.8265C24.568 37.8232 22.8419 34.823 19.3897 32.1121Z" fill="white"/>
<path d="M3.64521 44.3274C5.65842 44.3274 7.29045 42.6802 7.29045 40.6481C7.29045 38.6161 5.65842 36.9688 3.64521 36.9688C1.63201 36.9688 0 38.6161 0 40.6481C0 42.6802 1.63201 44.3274 3.64521 44.3274Z" fill="#10659E"/>
</svg>
