<svg width="248" height="270" viewBox="0 0 248 270" fill="none" xmlns="http://www.w3.org/2000/svg">
<path d="M36 92.2852C36 59.1413 36 30.7617 41.0108 17.5025C45.2318 5.83141 56.8415 0 69.4961 0C82.159 0 93.7604 5.83141 97.9814 17.5025C102.992 30.7617 102.992 59.133 102.992 92.2852C102.992 127.026 102.729 153.271 97.9814 167.068C93.7604 179.004 82.414 184.57 69.4961 184.57C56.5699 184.57 45.2318 179.004 41.0108 167.068C36.2633 153.271 36 127.017 36 92.2852ZM69.4961 167.06C74.2436 167.06 79.2545 164.669 80.5709 157.779C82.414 146.91 82.4141 120.127 82.4141 92.2852C82.4141 65.5021 82.6773 37.6602 80.5709 26.5185C79.2545 19.6283 73.9803 17.5025 69.4961 17.5025C64.7485 17.5025 59.7377 19.6283 58.4213 26.5185C56.3067 37.6519 56.5781 65.5021 56.5781 92.2852C56.5781 120.127 56.3149 146.91 58.4213 157.779C59.7377 164.677 64.7485 167.06 69.4961 167.06Z" fill="white"/>
<path d="M70.1797 106.641C76.9754 106.641 82.4844 101.132 82.4844 94.3359C82.4844 87.5402 76.9754 82.0312 70.1797 82.0312C63.384 82.0312 57.875 87.5402 57.875 94.3359C57.875 101.132 63.384 106.641 70.1797 106.641Z" fill="#10659E"/>
<path d="M144.008 92.2852C144.008 59.1413 144.008 30.7617 149.019 17.5025C153.24 5.83141 164.849 0 177.504 0C190.167 0 201.768 5.83141 205.989 17.5025C211 30.7617 211 59.133 211 92.2852C211 127.026 210.737 153.271 205.989 167.068C201.768 179.004 190.422 184.57 177.504 184.57C164.578 184.57 153.24 179.004 149.019 167.068C144.271 153.271 144.008 127.017 144.008 92.2852ZM177.504 167.06C182.251 167.06 187.262 164.669 188.579 157.779C190.422 146.91 190.422 120.127 190.422 92.2852C190.422 65.5021 190.685 37.6602 188.579 26.5185C187.262 19.6283 181.988 17.5025 177.504 17.5025C172.756 17.5025 167.746 19.6283 166.429 26.5185C164.314 37.6519 164.586 65.5021 164.586 92.2852C164.586 120.127 164.323 146.91 166.429 157.779C167.746 164.677 172.756 167.06 177.504 167.06Z" fill="white"/>
<path d="M178.188 106.641C184.983 106.641 190.492 101.132 190.492 94.3359C190.492 87.5402 184.983 82.0312 178.188 82.0312C171.392 82.0312 165.883 87.5402 165.883 94.3359C165.883 101.132 171.392 106.641 178.188 106.641Z" fill="#10659E"/>
<path d="M243 265C158.918 190.432 106.193 195.614 5 265" stroke="white" stroke-width="10" stroke-linecap="round"/>
</svg>
