<svg width="188" height="212" viewBox="0 0 188 212" fill="none" xmlns="http://www.w3.org/2000/svg">
<path d="M5 150.876C67.8846 228.127 107.318 222.758 183 150.876" stroke="white" stroke-width="10" stroke-linecap="round"/>
<path d="M24.4369 69.0518C24.4369 44.252 24.4369 23.0172 28.1862 13.0961C31.3445 4.36331 40.0314 0 49.5001 0C58.975 0 67.6557 4.36331 70.814 13.0961C74.5633 23.0172 74.5633 44.2459 74.5633 69.0518C74.5633 95.0459 74.3663 114.684 70.814 125.007C67.6557 133.938 59.1659 138.103 49.5001 138.103C39.8282 138.103 31.3445 133.938 28.1862 125.007C24.6339 114.684 24.4369 95.0398 24.4369 69.0518ZM49.5001 125.001C53.0524 125.001 56.8017 123.213 57.7868 118.057C59.1658 109.925 59.1659 89.8842 59.1659 69.0518C59.1659 49.0115 59.3629 28.179 57.7868 19.8423C56.8017 14.6867 52.8554 13.0961 49.5001 13.0961C45.9478 13.0961 42.1985 14.6867 41.2134 19.8423C39.6312 28.1728 39.8343 49.0115 39.8343 69.0518C39.8343 89.8842 39.6374 109.925 41.2134 118.057C42.1985 123.219 45.9478 125.001 49.5001 125.001Z" fill="white"/>
<path d="M50.0116 79.7931C55.0964 79.7931 59.2185 75.6711 59.2185 70.5862C59.2185 65.5014 55.0964 61.3793 50.0116 61.3793C44.9268 61.3793 40.8047 65.5014 40.8047 70.5862C40.8047 75.6711 44.9268 79.7931 50.0116 79.7931Z" fill="#10659E"/>
<path d="M105.253 69.0518C105.253 44.252 105.253 23.0172 109.002 13.0961C112.161 4.36331 120.847 0 130.316 0C139.791 0 148.472 4.36331 151.63 13.0961C155.379 23.0172 155.379 44.2459 155.379 69.0518C155.379 95.0459 155.182 114.684 151.63 125.007C148.472 133.938 139.982 138.103 130.316 138.103C120.644 138.103 112.161 133.938 109.002 125.007C105.45 114.684 105.253 95.0398 105.253 69.0518ZM130.316 125.001C133.868 125.001 137.618 123.213 138.603 118.057C139.982 109.925 139.982 89.8842 139.982 69.0518C139.982 49.0115 140.179 28.179 138.603 19.8423C137.618 14.6867 133.671 13.0961 130.316 13.0961C126.764 13.0961 123.015 14.6867 122.029 19.8423C120.447 28.1728 120.65 49.0115 120.65 69.0518C120.65 89.8842 120.453 109.925 122.029 118.057C123.015 123.219 126.764 125.001 130.316 125.001Z" fill="white"/>
<path d="M130.828 79.7931C135.913 79.7931 140.035 75.6711 140.035 70.5862C140.035 65.5014 135.913 61.3793 130.828 61.3793C125.743 61.3793 121.621 65.5014 121.621 70.5862C121.621 75.6711 125.743 79.7931 130.828 79.7931Z" fill="#10659E"/>
</svg>
